# xmcd
#
# Track frame offsets:
#	150
#	17673
#	33388
#	46125
#	60125
#	76460
#	93512
#	114788
#	132223
#	146692
#	159662
#	170420
#	184564
#	197349
#	211434
#	232951
#
# Disc length: 3237 seconds
#
# Revision: 1
# Processed by: cddbd v1.5.2PL0 Copyright (c) Steve Scherf et al.
# Submitted via: audiograbber 1.83.01
#
DISCID=c30ca310
DTITLE=Various Artist - Deutsche Country Hits
DYEAR=2004
DGENRE=Country
TTITLE0=Gunter Gabriel - Komm unter meine Decke
TTITLE1=Tennessee - Ich kann nicht aufhör'n Dich zu lieben
TTITLE2=Heidi Gehlert - Dein Lachen steckt an
TTITLE3=Gudrun Lange and Kactus - Geh' heute nicht heim
TTITLE4=Tennessee - Hey Mädchen du träumst
TTITLE5=Larry and Liane - Eigentlich brauch' ich nur Dich
TTITLE6=Bert Kentucky - Die schönsten Augen Hamburgs
TTITLE7=Gudrun Lange and Kactus - Alles Theater
TTITLE8=Tex Haper - Nur wer liebt, der kann auch weinen
TTITLE9=H O W Company - Frei sein
TTITLE10=Cissy and Friends - Mutter und Kind
TTITLE11=Gudrun Lange and Kactus - Heut' bin ich endlich mal alleine
TTITLE12=Peter Hinnen - Ich wäre so gern in Louisiana
TTITLE13=Gudrun Lange and Kactus - Bin ich verliebt
TTITLE14=Cissy and Friends - Einer ist immer der Loser
TTITLE15=Florian Haid - Der stärkste Mann hält das nicht aus
EXTD=FlexMedia TS004\n4260043122817
EXTT0=
EXTT1=
EXTT2=
EXTT3=
EXTT4=
EXTT5=
EXTT6=
EXTT7=
EXTT8=
EXTT9=
EXTT10=
EXTT11=
EXTT12=
EXTT13=
EXTT14=
EXTT15=
PLAYORDER=
